<svg width="31" height="32" viewBox="0 0 31 32" fill="none" xmlns="http://www.w3.org/2000/svg">
<path fill-rule="evenodd" clip-rule="evenodd" d="M12.6508 24.3004C10.8969 24.3004 9.47348 25.7238 9.47348 27.4777C9.47348 29.2315 10.8969 30.655 12.6508 30.655C14.4046 30.655 15.828 29.2315 15.828 27.4777C15.828 25.7238 14.4046 24.3004 12.6508 24.3004ZM23.2417 24.3004C21.4878 24.3004 20.0644 25.7238 20.0644 27.4777C20.0644 29.2315 21.4878 30.655 23.2417 30.655C24.9956 30.655 26.419 29.2315 26.419 27.4777C26.419 25.7238 24.9956 24.3004 23.2417 24.3004ZM12.6508 26.4186C13.2354 26.4186 13.7099 26.8931 13.7099 27.4777C13.7099 28.0623 13.2354 28.5368 12.6508 28.5368C12.0661 28.5368 11.5917 28.0623 11.5917 27.4777C11.5917 26.8931 12.0661 26.4186 12.6508 26.4186ZM23.2417 26.4186C23.8263 26.4186 24.3008 26.8931 24.3008 27.4777C24.3008 28.0623 23.8263 28.5368 23.2417 28.5368C22.6571 28.5368 22.1826 28.0623 22.1826 27.4777C22.1826 26.8931 22.6571 26.4186 23.2417 26.4186ZM4.22341 5.54357L7.38888 17.1543L8.04443 19.7755C8.39833 21.1894 9.66926 22.1819 11.1276 22.1819H26.4185C27.0031 22.1819 27.4776 21.7074 27.4776 21.1228C27.4776 20.5381 27.0031 20.0637 26.4185 20.0637H11.1276C10.6413 20.0637 10.2177 19.7332 10.0993 19.262L9.77089 17.9455H24.8003C26.2332 17.9455 27.4892 16.9871 27.8662 15.6039L29.888 8.19027C30.1487 7.23497 29.9485 6.21298 29.348 5.42598C28.7464 4.63898 27.8133 4.17728 26.823 4.17728H5.99998L5.42386 2.4489C5.13474 1.58341 4.32555 1 3.4137 1H2.05909C1.47446 1 1 1.47446 1 2.05909C1 2.64372 1.47446 3.11819 2.05909 3.11819H3.4137L4.22341 5.54357ZM27.8442 7.63313L25.8225 15.0468C25.6974 15.5075 25.278 15.8274 24.8005 15.8274H9.22336L6.62313 6.29553H26.8222C27.1526 6.29553 27.464 6.44919 27.664 6.71183C27.8642 6.97448 27.931 7.31443 27.8442 7.63313Z" fill="white" stroke="white"/>
</svg>
