<svg width="29" height="30" viewBox="0 0 29 30" fill="none" xmlns="http://www.w3.org/2000/svg">
<path fill-rule="evenodd" clip-rule="evenodd" d="M11.6508 23.3004C9.8969 23.3004 8.47348 24.7238 8.47348 26.4777C8.47348 28.2315 9.8969 29.655 11.6508 29.655C13.4046 29.655 14.828 28.2315 14.828 26.4777C14.828 24.7238 13.4046 23.3004 11.6508 23.3004ZM22.2417 23.3004C20.4878 23.3004 19.0644 24.7238 19.0644 26.4777C19.0644 28.2315 20.4878 29.655 22.2417 29.655C23.9956 29.655 25.419 28.2315 25.419 26.4777C25.419 24.7238 23.9956 23.3004 22.2417 23.3004ZM3.22341 4.54357L6.38888 16.1543L7.04443 18.7755C7.39833 20.1894 8.66926 21.1819 10.1276 21.1819H25.4185C26.0031 21.1819 26.4776 20.7074 26.4776 20.1228C26.4776 19.5381 26.0031 19.0637 25.4185 19.0637H10.1276C9.64132 19.0637 9.21769 18.7332 9.09926 18.262L8.77089 16.9455H23.8003C25.2332 16.9455 26.4892 15.9871 26.8662 14.6039L28.888 7.19027C29.1487 6.23497 28.9485 5.21298 28.348 4.42598C27.7464 3.63898 26.8133 3.17728 25.823 3.17728H4.99998L4.42386 1.4489C4.13474 0.583409 3.32555 0 2.4137 0H1.05909C0.474462 0 0 0.474462 0 1.05909C0 1.64372 0.474462 2.11819 1.05909 2.11819H2.4137L3.22341 4.54357Z" fill="white"/>
</svg>
