<svg width="81" height="81" viewBox="0 0 81 81" fill="none" xmlns="http://www.w3.org/2000/svg">
<circle cx="40.5" cy="40.5" r="40.5" fill="#E7CCBB"/>
<path d="M48.2739 25.5733H53.5924C54.1795 25.5733 54.6561 25.0967 54.6561 24.5096V17.3434C54.6561 16.7861 54.2274 16.3223 53.6722 16.2829C51.9798 16.1627 48.6738 16 46.2965 16C39.7643 16 35.5096 19.9144 35.5096 27.0284V34.0828H28.0637C27.4765 34.0828 27 34.5594 27 35.1465V42.5924C27 43.1796 27.4765 43.6561 28.0637 43.6561H35.5096V63.8663C35.5096 64.4535 35.9861 64.93 36.5733 64.93H44.0191C44.6063 64.93 45.0828 64.4535 45.0828 63.8663V43.6561H52.7648C53.3073 43.6561 53.7626 43.2487 53.8221 42.7094L54.6497 35.2635C54.7199 34.6338 54.2263 34.0828 53.5924 34.0828H45.0828V28.7643C45.0828 27.0018 46.5114 25.5733 48.2739 25.5733Z" fill="white"/>
</svg>
