<svg width="81" height="81" viewBox="0 0 81 81" fill="none" xmlns="http://www.w3.org/2000/svg">
<circle cx="40.5" cy="40.5" r="40.5" fill="#E7CCBB"/>
<path d="M31.6809 19C24.6869 19 19 24.6869 19 31.6809V49.2391C19 56.2331 24.6869 61.92 31.6809 61.92H49.2391C56.2331 61.92 61.92 56.2331 61.92 49.2391V31.6809C61.92 24.6869 56.2331 19 49.2391 19H31.6809ZM52.1655 26.8036C53.2385 26.8036 54.1164 27.6815 54.1164 28.7545C54.1164 29.8275 53.2385 30.7055 52.1655 30.7055C51.0925 30.7055 50.2145 29.8275 50.2145 28.7545C50.2145 27.6815 51.0925 26.8036 52.1655 26.8036ZM40.46 29.73C46.381 29.73 51.19 34.539 51.19 40.46C51.19 46.381 46.381 51.19 40.46 51.19C34.539 51.19 29.73 46.381 29.73 40.46C29.73 34.539 34.539 29.73 40.46 29.73ZM40.46 31.6809C35.6217 31.6809 31.6809 35.6217 31.6809 40.46C31.6809 45.2983 35.6217 49.2391 40.46 49.2391C45.2983 49.2391 49.2391 45.2983 49.2391 40.46C49.2391 35.6217 45.2983 31.6809 40.46 31.6809Z" fill="white"/>
</svg>
