<svg width="81" height="81" viewBox="0 0 81 81" fill="none" xmlns="http://www.w3.org/2000/svg">
<circle cx="40.5" cy="40.5" r="40.5" fill="#E7CCBB"/>
<path d="M24.5983 20C21.3606 20 19.0091 21.9402 19.0091 24.6087C19.0091 27.2866 21.4166 29.3122 24.5983 29.3122C27.8359 29.3122 30.1874 27.3345 30.1874 24.5541C30.0381 21.8762 27.7333 20 24.5983 20ZM19.933 31.1874C19.4199 31.1874 19 31.6073 19 32.1205V59.1787C19 59.6919 19.4199 60.1118 19.933 60.1118H29.2635C29.7767 60.1118 30.1965 59.6919 30.1965 59.1787V32.1205C30.1965 31.6073 29.7767 31.1874 29.2635 31.1874H19.933ZM33.9287 31.1874C33.4155 31.1874 32.9957 31.6073 32.9957 32.1205V59.1787C32.9957 59.6919 33.4155 60.1118 33.9287 60.1118H42.3261C42.8411 60.1118 43.2591 59.6938 43.2591 59.1787V45.1831V44.9498V44.7165C43.2591 42.5052 44.9579 40.704 47.1225 40.5361C47.2345 40.5174 47.3459 40.5178 47.4578 40.5178C47.5698 40.5178 47.6812 40.5174 47.7931 40.5361C49.9578 40.704 51.6565 42.5052 51.6565 44.7165V59.1787C51.6565 59.6938 52.0745 60.1118 52.5896 60.1118H60.987C61.5001 60.1118 61.92 59.6919 61.92 59.1787V43.317C61.92 37.2802 58.6815 31.1874 51.4597 31.1874C48.1754 31.1874 45.6944 32.4566 44.1922 33.5109V32.1205C44.1922 31.6073 43.7723 31.1874 43.2591 31.1874H33.9287Z" fill="white"/>
</svg>
