<svg width="34" height="30" viewBox="0 0 34 30" fill="none" xmlns="http://www.w3.org/2000/svg">
<path d="M16.6433 3.51281C18.2577 2.55187 19.6797 1.43733 21.2943 0.745315C26.176 -1.36881 31.7878 1.20648 33.2484 6.04975C34.2093 9.20175 33.6329 12.1229 31.8646 14.8519C30.4039 17.1583 28.2901 18.8493 26.4065 20.7328C23.7543 23.3081 21.1021 25.845 18.45 28.4203C17.3354 29.4966 16.3745 29.4966 15.2597 28.4203C11.5312 24.8071 7.80281 21.2325 4.11282 17.6194C2.07564 15.6592 0.499636 13.3912 0.115468 10.5085C-0.614912 5.281 2.11428 0.476322 8.45639 0.0535103C11.4161 -0.138732 13.7992 1.12976 16.0286 2.89795C16.2591 3.16714 16.5281 3.39772 16.6433 3.51301L16.6433 3.51281Z" fill="black"/>
</svg>
