<svg width="33" height="29" viewBox="0 0 33 29" fill="none" xmlns="http://www.w3.org/2000/svg">
<path d="M16.4242 2.50903C12.555 -0.95764 6.60491 -0.831996 2.88624 2.88627C-0.962081 6.73488 -0.962081 12.9745 2.88624 16.8226L14.1014 28.0378C15.3841 29.3207 17.4639 29.3207 18.7465 28.0378L29.9616 16.8226C33.8102 12.9743 33.8102 6.73516 29.9616 2.88627C26.2434 -0.831967 20.293 -0.957612 16.4237 2.50903H16.4242ZM14.5001 5.20909L15.2628 5.97183C15.9043 6.61331 16.9442 6.61331 17.5856 5.97183L18.3484 5.20909C20.914 2.64347 25.0736 2.64347 27.6391 5.20909C30.2047 7.77471 30.2047 11.9343 27.6391 14.4998L16.4239 25.7149L5.20881 14.4998C2.64319 11.9342 2.64319 7.77457 5.20881 5.20909C7.77415 2.64347 11.934 2.64347 14.4995 5.20909H14.5001Z" fill="black"/>
</svg>
