<svg width="27" height="27" viewBox="0 0 27 27" fill="none" xmlns="http://www.w3.org/2000/svg">
<path d="M13.5 0C6.06875 0 0 6.06875 0 13.5C0 20.9313 6.06875 27 13.5 27C20.9302 27 27 20.9528 27 13.5C27 6.04722 20.9302 0 13.5 0V0ZM13.5 2.96712C19.3094 2.96712 24.033 7.69053 24.033 13.5002C24.033 19.3095 19.3096 24.0332 13.5 24.0332C7.69063 24.0332 2.96697 19.3098 2.96697 13.5002C2.96697 7.69079 7.69038 2.96712 13.5 2.96712V2.96712ZM9.29422 7.6771C8.91557 7.6771 8.53254 7.82367 8.24517 8.11122C7.67008 8.68631 7.67008 9.63484 8.24517 10.2095L11.4019 13.3663L8.24517 16.523C7.67069 17.0975 7.67069 18.0462 8.24517 18.6207C8.5241 18.8996 8.91074 19.0554 9.29422 19.0554C9.6777 19.0554 10.0647 18.8998 10.3433 18.6207L13.5 15.4639L16.6567 18.6207C16.9357 18.8996 17.3223 19.0554 17.7058 19.0554C18.0893 19.0554 18.4763 18.8998 18.7548 18.6207C19.3293 18.0462 19.3293 17.0975 18.7548 16.523L15.5981 13.3663L18.7548 10.2095C19.3299 9.63443 19.3299 8.6859 18.7548 8.11122C18.1797 7.53674 17.2312 7.53612 16.6565 8.11122L13.4998 11.2679L10.3431 8.11122C10.0555 7.82367 9.67206 7.6771 9.29401 7.6771H9.29422Z" fill="#D01345"/>
</svg>
