<svg width="27" height="27" viewBox="0 0 27 27" fill="none" xmlns="http://www.w3.org/2000/svg">
<path d="M14.4947 13.5L18.971 9.02375C19.2552 8.73951 19.2552 8.31329 18.971 8.02901C18.6867 7.74474 18.2605 7.74477 17.9763 8.02901L13.5 12.5053L9.02375 8.02901C8.73951 7.74477 8.31328 7.74477 8.02901 8.02901C7.74474 8.31325 7.74477 8.73947 8.02901 9.02375L12.5053 13.5L8.02901 17.9763C7.74477 18.2605 7.74477 18.6867 8.02901 18.971C8.17101 19.1132 8.34869 19.1844 8.52637 19.1844C8.70405 19.1844 8.88173 19.1132 9.02372 18.9712L13.5 14.4948L17.9762 18.971C18.1185 19.1133 18.2962 19.1844 18.4736 19.1844C18.6513 19.1844 18.8289 19.1133 18.9709 18.9713C19.2552 18.6871 19.2552 18.2608 18.9709 17.9766L14.4947 13.5ZM14.4947 13.5L18.971 9.02375C19.2552 8.73951 19.2552 8.31329 18.971 8.02901C18.6867 7.74474 18.2605 7.74477 17.9763 8.02901L13.5 12.5053L9.02375 8.02901C8.73951 7.74477 8.31328 7.74477 8.02901 8.02901C7.74474 8.31325 7.74477 8.73947 8.02901 9.02375L12.5053 13.5L8.02901 17.9763C7.74477 18.2605 7.74477 18.6867 8.02901 18.971C8.17101 19.1132 8.34869 19.1844 8.52637 19.1844C8.70405 19.1844 8.88173 19.1132 9.02372 18.9712L13.5 14.4948L17.9762 18.971C18.1185 19.1133 18.2962 19.1844 18.4736 19.1844C18.6513 19.1844 18.8289 19.1133 18.9709 18.9713C19.2552 18.6871 19.2552 18.2608 18.9709 17.9766L14.4947 13.5ZM14.4947 13.5L18.971 9.02375C19.2552 8.73951 19.2552 8.31329 18.971 8.02901C18.6867 7.74474 18.2605 7.74477 17.9763 8.02901L13.5 12.5053L9.02375 8.02901C8.73951 7.74477 8.31328 7.74477 8.02901 8.02901C7.74474 8.31325 7.74477 8.73947 8.02901 9.02375L12.5053 13.5L8.02901 17.9763C7.74477 18.2605 7.74477 18.6867 8.02901 18.971C8.17101 19.1132 8.34869 19.1844 8.52637 19.1844C8.70405 19.1844 8.88173 19.1132 9.02372 18.9712L13.5 14.4948L17.9762 18.971C18.1185 19.1133 18.2962 19.1844 18.4736 19.1844C18.6513 19.1844 18.8289 19.1133 18.9709 18.9713C19.2552 18.6871 19.2552 18.2608 18.9709 17.9766L14.4947 13.5ZM13.5 0C6.03947 0 0 6.03941 0 13.5C0 20.9606 6.03941 27 13.5 27C20.9606 27 27 20.9606 27 13.5C27 6.03941 20.9606 0 13.5 0V0ZM13.5 25.5789C6.82105 25.5789 1.42105 20.1789 1.42105 13.5C1.42105 6.82105 6.82112 1.42105 13.5 1.42105C20.1789 1.42105 25.5789 6.82112 25.5789 13.5C25.5789 20.1789 20.1791 25.5789 13.5 25.5789ZM18.9709 8.02895C18.6867 7.74471 18.2605 7.74471 17.9762 8.02895L13.4999 12.5052L9.02369 8.02895C8.73944 7.74471 8.31322 7.74471 8.02895 8.02895C7.74467 8.31319 7.74471 8.73941 8.02895 9.02369L12.5052 13.4999L8.02895 17.9762C7.74471 18.2604 7.74471 18.6867 8.02895 18.9709C8.17095 19.1132 8.34863 19.1843 8.5263 19.1843C8.70399 19.1843 8.88167 19.1132 9.02366 18.9712L13.4999 14.4947L17.9762 18.971C18.1184 19.1132 18.2961 19.1844 18.4735 19.1844C18.6512 19.1844 18.8289 19.1132 18.9709 18.9712C19.2551 18.687 19.2551 18.2608 18.9709 17.9765L14.4946 13.5001L18.9709 9.0238C19.2551 8.73956 19.2551 8.31308 18.9709 8.02906L18.9709 8.02895ZM14.4947 13.4999L18.9709 9.02362C19.2552 8.73938 19.2552 8.31316 18.9709 8.02888C18.6867 7.74461 18.2605 7.74464 17.9762 8.02888L13.4999 12.5051L9.02369 8.02888C8.73944 7.74464 8.31322 7.74464 8.02895 8.02888C7.74467 8.31313 7.74471 8.73935 8.02895 9.02362L12.5052 13.4999L8.02895 17.9761C7.74471 18.2604 7.74471 18.6866 8.02895 18.9709C8.17095 19.1131 8.34863 19.1842 8.5263 19.1842C8.70399 19.1842 8.88167 19.1131 9.02366 18.9711L13.4999 14.4947L17.9762 18.9709C18.1184 19.1132 18.2961 19.1843 18.4735 19.1843C18.6512 19.1843 18.8289 19.1132 18.9709 18.9712C19.2551 18.6869 19.2551 18.2607 18.9709 17.9764L14.4947 13.4999Z" fill="#D01345"/>
</svg>
