<svg width="81" height="81" viewBox="0 0 81 81" fill="none" xmlns="http://www.w3.org/2000/svg">
<circle cx="40.5" cy="40.5" r="40.5" fill="#E7CCBB"/>
<path d="M61.92 27.1278C60.3378 27.8302 58.6419 28.3019 56.859 28.5159C58.6787 27.4255 60.0769 25.6994 60.7325 23.6456C59.0332 24.6524 57.1433 25.385 55.1396 25.7797C53.534 24.0671 51.246 23 48.7138 23C43.8502 23 39.9064 26.9404 39.9064 31.8041C39.9064 32.4932 39.9867 33.1655 40.1372 33.8111C32.8183 33.4432 26.3323 29.9376 21.9871 24.609C21.2278 25.9135 20.7963 27.4255 20.7963 29.0378C20.7963 32.0918 22.3484 34.7879 24.7133 36.3701C23.2682 36.3232 21.9102 35.9252 20.7227 35.2662C20.7227 35.303 20.7227 35.3398 20.7227 35.3766C20.7227 39.6448 23.76 43.2006 27.784 44.0134C27.0481 44.2141 26.2687 44.3212 25.4659 44.3212C24.8973 44.3212 24.3453 44.2677 23.8068 44.1606C24.9307 47.6562 28.1821 50.2084 32.0322 50.2787C29.0217 52.6403 25.2251 54.0452 21.0973 54.0452C20.3848 54.0452 19.6857 54.005 19 53.9214C22.8936 56.4235 27.5231 57.8786 32.4972 57.8786C48.6938 57.8786 57.5514 44.4617 57.5514 32.8277C57.5514 32.4463 57.5414 32.0617 57.528 31.687C59.2473 30.446 60.7392 28.8939 61.92 27.1278Z" fill="white"/>
</svg>
